<svg width="128" height="128" viewBox="0 0 128 128" fill="none" xmlns="http://www.w3.org/2000/svg">
  <rect x="8" y="8" width="112" height="112" rx="28" fill="#09090B"/>
  <rect x="12" y="12" width="104" height="104" rx="24" fill="#111113" fill-opacity=".82"/>
  <path d="M92 40.5C84.9 31.7 74.5 26 62.7 26 42.6 26 26.3 43 26.3 64s16.3 38 36.4 38c12 0 22.6-6 29.6-15.2" stroke="#F8FAFC" stroke-width="12" stroke-linecap="round"/>
  <path d="M89 43.5C83.1 36.6 73.9 32 63.5 32 46.4 32 32.5 46.3 32.5 64s13.9 32 31 32c10.5 0 19.8-4.7 25.7-11.8" stroke="#FFFFFF" stroke-opacity=".34" stroke-width="3" stroke-linecap="round"/>
  <circle cx="91" cy="46" r="5.5" fill="#F8FAFC" fill-opacity=".92"/>
  <circle cx="99" cy="64" r="5.5" fill="#F8FAFC" fill-opacity=".62"/>
  <circle cx="91" cy="82" r="5.5" fill="#F8FAFC" fill-opacity=".92"/>
  <path d="M92 46l7 18-7 18" stroke="#F8FAFC" stroke-opacity=".42" stroke-width="2.5" stroke-linecap="round" stroke-linejoin="round"/>
</svg>
